<svg role="img" aria-label="AAArdvark-logo" enable-background="new 0 0 220 40" viewBox="0 0 220 40" xml:space="preserve" xmlns="http://www.w3.org/2000/svg">
    <g fill="#0D48A7">
        <path d="m79.4 22.6v16.8h-7.5v-26h6.4l.5 4.1c1.7-2.5 4.2-4.6 8.2-4.6h1.3v7.3c-3.4-.3-6.8.6-8.9 2.4z"></path>
        <path d="m108.7 39.4-.4-2.5h-.1c-1.8 2-4.2 3.2-7.7 3.2-6.1 0-10.2-3.7-10.2-13.1 0-10.4 5.6-14.1 11-14.1 2.9 0 4.9.6 6.6 2.2v-13.4h7.2v37.7zm-5.4-20.6c-3.8 0-5.2 3.3-5.2 7.8 0 4.6 1.4 7.4 5 7.4 1.6 0 3.2-.7 4.4-1.8v-11.9c-1-.8-2.5-1.5-4.2-1.5z"></path>
        <path d="m117.6 13.4h8.1l5.5 18.8h.2l5.5-18.8h7.7l-9.2 26h-8.8z"></path>
        <path d="m169.1 34.9c.4 0 .9-.1 1.5-.3l.2 4.3c-1 .5-3.2 1-4.8 1-3 0-4.8-.8-5.3-3.3-1.6 2.1-4.1 3.3-7.7 3.3-6.5 0-7.7-4.3-7.7-6.9 0-7.9 8.2-9.1 14.9-9.1v-.9c0-2.9-.4-4.7-3.7-4.7-2.5 0-3.4 1-3.9 3.6l-6.4-1.2c.8-4.9 3.9-7.8 11-7.8 6.9 0 10.4 2.7 10.4 9.2v10.9c0 1.3.2 1.9 1.5 1.9zm-16.2-3.1c0 1.5.6 2.8 3 2.8 1.8 0 3.5-.9 4.3-1.7v-4.6h-1.2c-3.6.2-6.1.9-6.1 3.5z"></path>
        <path d="m181.8 22.6v16.8h-7.5v-26h6.4l.5 4.1c1.7-2.5 4.2-4.6 8.2-4.6h1.3v7.3c-3.3-.3-6.7.6-8.9 2.4z"></path>
        <path d="m210.1 13.4h8.3l-8.6 9.3 9.3 16.7h-8.3l-6.8-11.9-2.5 2.4v9.4h-7.5v-37.6h7.5v20.8z"></path>
        <path d="m67.3 39.4h1.7l-14-39.4h-1.6z"></path>
        <path d="m52.5 0h-7.9l-12.9 39.4h8.7l3-9.6h13.1l3.3 9.6h6.6zm-7.7 23.1 4.8-15.2h.2l4.9 15.2z"></path>
    </g>
    <path d="m38.5 14.6.6-1.8-3.2-8.9h-1.2z" fill="#507dbf"></path>
    <path d="m31.3 11 4.1 12.9 2.6-7.9-4.2-12.1h-7.3l-11.6 35.5h7.8l2.7-8.6h7.8l2-6h-8.5l4.4-13.8z" fill="#507dbf"></path>
    <path d="m21 17 .4-1.3-2.7-7.8h-.9z" fill="#99b9e1"></path>
    <path d="m14.5 14.2 3.7 11.4 2.4-7.3-3.7-10.4h-6.6l-10.3 31.5h6.9l2.5-7.7h6.8l1.8-5.3h-7.5l3.9-12.2z" fill="#99b9e1"></path>
</svg>